<mxfile host="app.diagrams.net" modified="2023-06-30T16:23:30.540Z" agent="Mozilla/5.0 (Macintosh; Intel Mac OS X 10_15_7) AppleWebKit/537.36 (KHTML, like Gecko) Chrome/114.0.0.0 Safari/537.36" version="21.5.2" etag="bAkuQKMZG0XBNoE8u94e" type="github">
  <diagram name="Page-1" id="81TONA_0g1InQ4rYa_hs">
    <mxGraphModel>
      <root>
        <mxCell id="0" />
        <mxCell id="1" parent="0" />
      </root>
    </mxGraphModel>
  </diagram>
</mxfile>
